HIERARCHY
ROOT root
{
	OFFSET	0.000000	0.000000	0.000000
	CHANNELS 6 Xposition Yposition Zposition Zrotation Yrotation Xrotation
	JOINT lhipjoint
	{
		OFFSET	0.000000	0.000000	0.000000
		CHANNELS 3 Zrotation Yrotation Xrotation
		JOINT lfemur
		{
			OFFSET	1.656736	-1.802822	0.624766
			CHANNELS 3 Zrotation Yrotation Xrotation
			JOINT ltibia
			{
				OFFSET	2.597200	-7.135754	0.000000
				CHANNELS 3 Zrotation Yrotation Xrotation
				JOINT lfoot
				{
					OFFSET	2.492357	-6.847701	0.000000
					CHANNELS 3 Zrotation Yrotation Xrotation
					JOINT ltoes
					{
						OFFSET	0.197038	-0.541357	2.145811
						CHANNELS 3 Zrotation Yrotation Xrotation
						End Site
						{
							OFFSET	0.000000	-0.000000	1.112490
						}
					}
				}
			}
		}
	}
	JOINT rhipjoint
	{
		OFFSET	0.000000	0.000000	0.000000
		CHANNELS 3 Zrotation Yrotation Xrotation
		JOINT rfemur
		{
			OFFSET	-1.610701	-1.802823	0.624765
			CHANNELS 3 Zrotation Yrotation Xrotation
			JOINT rtibia
			{
				OFFSET	-2.595021	-7.129768	0.000000
				CHANNELS 3 Zrotation Yrotation Xrotation
				JOINT rfoot
				{
					OFFSET	-2.467804	-6.780241	0.000000
					CHANNELS 3 Zrotation Yrotation Xrotation
					JOINT rtoes
					{
						OFFSET	-0.230239	-0.632577	2.133676
						CHANNELS 3 Zrotation Yrotation Xrotation
						End Site
						{
							OFFSET	-0.000000	-0.000000	1.115690
						}
					}
				}
			}
		}
	}
	JOINT lowerback
	{
		OFFSET	0.000000	0.000000	0.000000
		CHANNELS 3 Zrotation Yrotation Xrotation
		JOINT upperback
		{
			OFFSET	0.019612	2.054496	-0.141116
			CHANNELS 3 Zrotation Yrotation Xrotation
			JOINT thorax
			{
				OFFSET	0.010210	2.064356	-0.059210
				CHANNELS 3 Zrotation Yrotation Xrotation
				JOINT lowerneck
				{
					OFFSET	0.001509	2.068054	0.008037
					CHANNELS 3 Zrotation Yrotation Xrotation
					JOINT upperneck
					{
						OFFSET	0.007130	1.567112	0.149683
						CHANNELS 3 Zrotation Yrotation Xrotation
						JOINT head
						{
							OFFSET	0.034286	1.560409	-0.100058
							CHANNELS 3 Zrotation Yrotation Xrotation
							End Site
							{
								OFFSET	0.013051	1.625595	-0.052648
							}
						}
					}
				}
				JOINT lclavicle
				{
					OFFSET	0.001509	2.068054	0.008037
					CHANNELS 3 Zrotation Yrotation Xrotation
					JOINT lhumerus
					{
						OFFSET	3.542050	0.904362	-0.173638
						CHANNELS 3 Zrotation Yrotation Xrotation
						JOINT lradius
						{
							OFFSET	4.865130	-0.000000	-0.000000
							CHANNELS 3 Zrotation Yrotation Xrotation
							JOINT lwrist
							{
								OFFSET	3.355540	-0.000000	0.000000
								CHANNELS 3 Zrotation Yrotation Xrotation
								JOINT lhand
								{
									OFFSET	1.677770	-0.000000	0.000000
									CHANNELS 3 Zrotation Yrotation Xrotation
									JOINT lfingers
									{
										OFFSET	0.661175	-0.000000	0.000000
										CHANNELS 3 Zrotation Yrotation Xrotation
										End Site
										{
											OFFSET	0.533057	-0.000000	0.000000
										}
									}
								}
								JOINT lthumb
								{
									OFFSET	1.677770	-0.000000	0.000000
									CHANNELS 3 Zrotation Yrotation Xrotation
									End Site
									{
										OFFSET	0.541196	-0.000000	0.541196
									}
								}
							}
						}
					}
				}
				JOINT rclavicle
				{
					OFFSET	0.001509	2.068054	0.008037
					CHANNELS 3 Zrotation Yrotation Xrotation
					JOINT rhumerus
					{
						OFFSET	-3.498016	0.759940	-0.326156
						CHANNELS 3 Zrotation Yrotation Xrotation
						JOINT rradius
						{
							OFFSET	-5.026490	-0.000000	0.000000
							CHANNELS 3 Zrotation Yrotation Xrotation
							JOINT rwrist
							{
								OFFSET	-3.364310	-0.000000	0.000000
								CHANNELS 3 Zrotation Yrotation Xrotation
								JOINT rhand
								{
									OFFSET	-1.682160	-0.000000	0.000000
									CHANNELS 3 Zrotation Yrotation Xrotation
									JOINT rfingers
									{
										OFFSET	-1.730406	-0.000000	0.000000
										CHANNELS 3 Zrotation Yrotation Xrotation
										End Site
										{
											OFFSET	-0.588872	-0.000000	0.000000
										}
									}
								}
								JOINT rthumb
								{
									OFFSET	-1.682160	-0.000000	0.000000
									CHANNELS 3 Zrotation Yrotation Xrotation
									End Site
									{
										OFFSET	-0.597863	-0.000000	0.597863
									}
								}
							}
						}
					}
				}
			}
		}
	}
}
MOTION
Frames:	7
Frame Time:	0.008333
	10.513000	16.743999	-4.928800	3.130470	-8.032260	-2.811400	0.000000	-0.000000	0.000000	-24.896805	-11.990560	-24.012079	5.683165	14.114117	43.696503	0.588029	3.316202	-16.070726	0.171469	-2.667530	-7.354461	0.000000	-0.000000	0.000000	19.263538	7.544024	5.556392	-10.879084	-17.875410	62.388302	-0.340917	-13.130218	13.046836	-2.847276	10.443620	-30.425581	-0.909340	1.296600	9.011739	-1.605860	1.572620	1.680020	-1.334540	0.782333	-3.286840	-3.019190	0.697186	-15.106097	0.515502	1.371940	-7.890440	0.722070	0.761178	-0.016179	-3.019190	-0.000000	0.000000	-93.026436	11.704827	5.409255	11.020512	-18.319681	-1.782361	-0.000000	0.000002	-19.393200	25.536211	20.410320	9.459251	-7.125019	0.000000	0.000000	-3.059693	52.364956	-0.555107	-3.019190	-0.000000	0.000000	82.930458	7.697498	42.147774	-36.120125	45.595592	-15.608246	0.000000	0.000000	-21.409292	-33.997906	19.454655	-12.660453	7.125019	0.000000	0.000000	-3.612018	-6.941164	-3.155467
	10.522400	16.789600	-4.693530	3.418230	-7.923899	-2.834020	0.000000	-0.000000	0.000000	-25.621441	-11.768588	-22.832178	5.582896	14.011588	43.283859	0.638752	3.287910	-16.646862	0.165721	-2.622660	-7.229917	0.000000	-0.000000	0.000000	18.820328	8.100435	3.556522	-11.585212	-18.209753	64.667870	-0.090009	-13.751626	10.707826	-2.275057	9.416928	-27.108438	-1.072550	1.210120	9.003740	-1.690480	1.438790	1.657340	-1.315110	0.717135	-3.309830	-2.817500	0.765973	-15.161598	0.344857	1.430550	-7.709910	0.638682	0.781254	0.051179	-2.817500	0.000000	0.000000	-93.010536	11.142915	6.432290	11.419068	-18.927738	-1.909642	0.000000	0.000000	-20.065388	25.895256	19.368631	9.146358	-7.125019	0.000000	0.000000	-2.440569	51.308151	-0.379429	-2.817500	0.000000	0.000000	83.566849	7.335991	41.797836	-33.872597	43.990112	-14.024505	-0.000000	0.000002	-20.806194	-33.904694	19.669786	-12.747184	7.125019	0.000000	0.000000	-3.519029	-6.715569	-3.089346
	10.525700	16.825500	-4.464570	3.222360	-7.666690	-2.923040	0.000000	-0.000000	0.000000	-25.820194	-11.558067	-21.516958	5.476680	13.901294	42.843464	0.714049	3.042470	-17.349524	0.148537	-2.483591	-6.844150	0.000000	-0.000000	0.000000	18.939745	8.144249	1.773913	-12.166866	-18.460300	66.516762	0.056046	-13.917928	9.083346	-2.304358	9.473175	-27.286987	-0.817665	1.018190	9.126541	-1.608960	1.209740	1.714410	-1.349000	0.601183	-3.318500	-2.421210	0.808335	-15.527400	-0.201868	1.427570	-7.261079	0.407076	0.757256	0.258897	-2.421210	0.000000	-0.000000	-92.908096	10.418673	7.889263	11.803923	-19.509926	-2.036333	0.000000	-0.000002	-21.076498	26.414562	18.551706	8.980583	-7.125019	0.000000	0.000000	-1.740039	50.513809	-0.236505	-2.421210	0.000000	-0.000000	84.073296	7.012993	41.431282	-31.861744	42.436672	-12.647434	0.000000	-0.000002	-20.153702	-33.788189	19.677013	-12.697415	7.125019	0.000000	0.000000	-3.444625	-6.734070	-3.022542
	10.525700	16.856899	-4.240210	2.764410	-7.317981	-2.910240	0.000000	-0.000000	0.000000	-25.671497	-11.379955	-20.317282	5.354966	13.772723	42.334549	0.808731	2.537960	-18.088137	0.089639	-1.931011	-5.315032	0.000000	-0.000000	0.000000	19.355127	8.013011	-0.131393	-12.644547	-18.650036	68.017792	0.200195	-14.200983	7.413616	-2.569607	9.963378	-28.858225	-0.284411	0.865916	9.205409	-1.478820	1.063190	1.733550	-1.498110	0.523729	-3.337570	-2.289450	0.805754	-15.593402	-0.429010	1.404990	-6.970919	0.315438	0.736380	0.365822	-2.289450	-0.000000	0.000000	-92.635628	9.601090	9.593038	12.304607	-20.259880	-2.206638	-0.000000	0.000002	-21.803295	26.576092	18.293877	8.923780	-7.125019	0.000000	0.000000	-1.526252	50.260815	-0.197951	-2.289450	-0.000000	0.000000	84.524147	6.361470	40.940315	-30.189285	41.055084	-11.533739	-0.000000	0.000002	-20.198494	-33.696037	19.798307	-12.727152	7.125019	0.000000	0.000000	-3.367413	-6.616360	-2.962225
	10.525300	16.921301	-4.008550	2.512550	-7.135420	-2.927550	0.000000	-0.000000	0.000000	-25.672785	-11.103456	-19.134680	5.203536	13.609406	41.694763	0.854889	2.149827	-18.368881	0.033919	-1.188809	-3.268472	0.000000	-0.000000	0.000000	19.623711	8.589271	-2.075532	-13.063358	-18.804922	69.322182	0.438911	-15.166254	4.829752	-2.069511	9.009389	-25.824694	0.065419	0.828227	9.219989	-1.435500	1.048950	1.751630	-1.648470	0.513593	-3.321700	-2.386481	0.907678	-15.058201	-0.250087	1.541580	-7.261860	0.387272	0.813861	0.182177	-2.386480	-0.000000	0.000000	-92.304512	8.849328	11.160885	12.981871	-21.260641	-2.446708	0.000000	0.000000	-22.558496	26.683783	18.241879	8.940853	-7.125019	0.000000	0.000000	-1.408501	50.222481	-0.181345	-2.386480	-0.000000	0.000000	85.073326	5.546455	40.242561	-28.595142	39.658382	-10.501350	0.000000	0.000000	-20.245291	-33.771843	19.578840	-12.630965	7.125019	0.000000	0.000000	-3.449912	-6.850364	-3.019403
	10.524400	16.994499	-3.774160	2.560290	-7.020600	-3.012220	0.000000	-0.000000	0.000000	-26.017506	-10.808650	-17.845852	5.019203	13.405392	40.905586	0.849654	2.181032	-18.330858	0.031090	-1.138184	-3.129104	0.000000	-0.000000	0.000000	19.551659	9.462477	-3.937920	-13.436522	-18.934145	70.475952	0.620791	-15.695225	2.222947	-1.591574	7.957807	-22.586000	0.009936	0.735210	9.201151	-1.397450	0.922688	1.864740	-1.561100	0.452497	-3.199039	-2.741210	0.971149	-14.888300	0.059394	1.678340	-7.391551	0.546783	0.896153	0.107642	-2.741210	0.000000	-0.000000	-92.201591	8.090081	12.344767	13.844832	-22.512444	-2.768421	-0.000000	0.000002	-23.401693	27.096003	19.087008	9.498045	-7.125019	0.000000	0.000000	-1.166062	51.216560	-0.178586	-2.741210	0.000000	-0.000000	85.510323	5.094914	39.724648	-26.879377	38.063927	-9.424664	0.000000	0.000000	-19.806499	-33.615150	19.026295	-12.228014	7.125019	0.000000	0.000000	-3.437511	-7.519562	-2.963578
	10.523800	17.039499	-3.545590	2.718831	-6.815371	-3.123290	0.000000	-0.000000	0.000000	-26.550486	-10.288750	-16.448565	4.811754	13.168615	40.002975	0.860460	2.260586	-18.478523	0.061783	-1.603801	-4.411920	0.000000	-0.000000	0.000000	19.258923	10.040792	-5.795415	-13.765346	-19.041323	71.486565	0.708324	-15.595388	-0.231863	-1.698763	8.208219	-23.348314	-0.210417	0.644077	9.358600	-1.277550	0.783028	1.847290	-1.298970	0.384955	-3.312880	-2.924560	0.839657	-14.941500	-0.192077	1.532600	-7.003020	0.496032	0.819325	0.243520	-2.924560	-0.000000	0.000000	-92.429161	7.594546	13.222635	14.800898	-23.868017	-3.144938	0.000000	-0.000002	-23.563395	26.923664	19.951130	9.831013	-7.125019	0.000000	0.000000	-1.529244	52.126312	-0.268345	-2.924560	-0.000000	0.000000	85.674522	4.426761	39.163895	-25.236185	36.444420	-8.429811	0.000000	0.000000	-19.326191	-33.207031	18.772749	-11.895249	7.125019	0.000000	0.000000	-3.217176	-7.899660	-2.748931
